External Loads File
version=1
nRows=93
nColumns=13
Range=5.000000e-03-10 seconds
endheader
time 	forceRightX 	forceRightY 	forceRightZ 	pointRightX 	pointRightY 	pointRightZ 	forceLeftX 	forceLeftY 	forceLeftZ 	pointLeftX 	pointLeftY 	pointLeftZ 		
7.505000 430.812236 879.603970 -0.000000 0.264891 0.132897 -0.137490 -47.505220 65.355178 -0.000000 0.354170 0.469768 -0.371046
7.510000 418.930689 811.721476 -0.000000 0.255738 0.134031 -0.137751 -54.936382 76.814344 -0.000000 0.364172 0.468975 -0.370588
7.515000 399.509122 735.876440 -0.000000 0.247003 0.136019 -0.138155 -62.986854 86.986866 -0.000000 0.373913 0.467467 -0.370103
7.520000 372.318621 653.674033 -0.000000 0.238585 0.138040 -0.138510 -71.550501 95.678837 -0.000000 0.383422 0.465766 -0.369656
7.525000 338.535767 566.664741 -0.000000 0.230616 0.140863 -0.138950 -80.328089 102.829360 -0.000000 0.392581 0.463503 -0.369109
7.530000 299.274278 477.131593 -0.000000 0.223214 0.144324 -0.139302 -89.098870 108.437191 -0.000000 0.401414 0.460376 -0.368517
7.535000 255.636701 388.014809 -0.000000 0.216135 0.148044 -0.139710 -97.840874 112.551194 -0.000000 0.409829 0.456857 -0.368204
7.540000 209.605173 302.113175 -0.000000 0.209680 0.152291 -0.139948 -106.518306 115.500964 -0.000000 0.417932 0.452622 -0.367959
7.545000 163.001763 222.401488 -0.000000 0.203685 0.156900 -0.140099 -115.283818 117.719224 -0.000000 0.425382 0.447825 -0.367873
7.550000 118.196694 151.144643 -0.000000 0.198052 0.161814 -0.140145 -124.150467 119.991444 -0.000000 0.432425 0.442477 -0.367710
7.555000 77.163988 90.087217 -0.000000 0.192739 0.167048 -0.140197 -133.244568 123.178627 -0.000000 0.438822 0.436452 -0.367720
7.560000 41.533291 40.002415 -0.000000 0.187705 0.172840 -0.140034 -142.625006 128.362837 -0.000000 0.444611 0.429873 -0.367816
7.565000 12.249920 0.818290 -0.000000 0.183117 0.178798 -0.139738 -152.579482 136.504015 -0.000000 0.449659 0.422739 -0.367827
7.570000 -10.292615 -28.342897 -0.000000 0.178636 0.185360 -0.139488 -162.954847 149.133205 -0.000000 0.454279 0.415117 -0.368100
7.575000 -26.274475 -48.715055 -0.000000 0.174598 0.192174 -0.139208 -174.046393 167.208088 -0.000000 0.458085 0.406863 -0.368207
7.580000 -36.393313 -61.683822 -0.000000 0.170203 0.199625 -0.139763 -185.444502 192.160537 -0.000000 0.461223 0.398139 -0.368717
7.585000 -41.471851 -68.730811 -0.000000 0.166608 0.207842 -0.139635 -197.247559 224.496632 -0.000000 0.463719 0.388973 -0.368778
7.590000 -42.453561 -71.244497 -0.000000 0.163486 0.216252 -0.139534 -209.713660 264.234236 -0.000000 0.465413 0.379624 -0.368643
7.595000 -40.529248 -70.244475 -0.000000 0.160986 0.225359 -0.139380 -222.580739 311.371808 -0.000000 0.466446 0.370217 -0.368617
7.600000 -36.793594 -66.481891 -0.000000 0.158921 0.234669 -0.139290 -235.503061 365.336225 -0.000000 0.466898 0.360147 -0.368824
7.605000 -32.028652 -60.556714 -0.000000 0.157479 0.244175 -0.139156 -248.691141 424.654851 -0.000000 0.466770 0.349709 -0.369021
7.610000 -26.881324 -52.879910 -0.000000 0.156563 0.253859 -0.139098 -261.973645 487.851701 -0.000000 0.466398 0.338930 -0.369420
7.615000 -21.727718 -43.834689 -0.000000 0.156258 0.263797 -0.139127 -275.669798 553.305176 -0.000000 0.465455 0.327954 -0.369503
7.620000 -16.780009 -33.751092 -0.000000 0.156549 0.273724 -0.139115 -290.069923 619.901941 -0.000000 0.464161 0.316677 -0.369732
7.625000 -12.073505 -22.881237 -0.000000 0.157574 0.283941 -0.139141 -305.393241 687.022397 -0.000000 0.462361 0.305507 -0.369983
7.630000 -7.454147 -11.380566 -0.000000 0.159340 0.294373 -0.139242 -321.527465 754.474388 -0.000000 0.460013 0.294555 -0.370225
7.635000 -2.571434 0.679646 -0.000000 0.161493 0.304617 -0.139287 -338.487991 822.176756 -0.000000 0.457168 0.283773 -0.370356
7.640000 3.043208 13.284247 -0.000000 0.164288 0.314744 -0.139386 -354.878230 890.674198 -0.000000 0.453841 0.273149 -0.370015
7.645000 9.847951 26.351106 -0.000000 0.167672 0.324594 -0.139450 -369.602005 960.348969 -0.000000 0.449889 0.262662 -0.370079
7.650000 18.100903 39.633252 -0.000000 0.171784 0.334280 -0.139450 -381.204499 1031.754922 -0.000000 0.445320 0.252464 -0.370129
7.655000 27.814986 52.679386 -0.000000 0.176468 0.344027 -0.139307 -387.248525 1105.745111 -0.000000 0.440119 0.242494 -0.370224
7.660000 38.585635 64.958247 -0.000000 0.181729 0.353417 -0.139205 -387.884342 1181.853802 -0.000000 0.434433 0.232802 -0.370379
7.665000 49.797397 75.825056 -0.000000 0.187494 0.362554 -0.139016 -380.886458 1259.724048 -0.000000 0.428193 0.223427 -0.370508
7.670000 60.577020 84.683527 -0.000000 0.193695 0.371518 -0.138897 -364.452960 1338.002675 -0.000000 0.421491 0.214437 -0.370543
7.675000 69.932931 91.172183 -0.000000 0.200469 0.380262 -0.138711 -337.328625 1414.533310 -0.000000 0.414430 0.205918 -0.370518
7.680000 77.044197 95.267809 -0.000000 0.207697 0.388985 -0.138394 -297.283470 1486.925167 -0.000000 0.406829 0.197833 -0.370462
7.685000 81.140361 97.632537 -0.000000 0.215414 0.397511 -0.138246 -246.032281 1551.726792 -0.000000 0.398780 0.190479 -0.370432
7.690000 81.971489 99.299524 -0.000000 0.223502 0.405641 -0.138038 -184.709307 1605.896158 -0.000000 0.390373 0.183562 -0.370372
7.695000 79.796812 101.459891 -0.000000 0.232070 0.413271 -0.137861 -114.887969 1646.705465 -0.000000 0.381582 0.177181 -0.370262
7.700000 75.218301 105.221507 -0.000000 0.240977 0.420580 -0.137709 -39.551958 1671.845453 -0.000000 0.372536 0.171377 -0.370208
7.705000 68.976181 111.382137 -0.000000 0.250137 0.427053 -0.137707 37.038551 1679.764972 -0.000000 0.363230 0.166094 -0.370200
7.710000 61.933607 120.229694 -0.000000 0.259538 0.432747 -0.137652 112.396281 1669.856969 -0.000000 0.353638 0.161463 -0.370358
7.715000 54.839987 131.689863 -0.000000 0.269188 0.437786 -0.137459 183.866199 1642.433186 -0.000000 0.343843 0.157563 -0.370559
7.720000 48.184661 145.421719 -0.000000 0.278963 0.442121 -0.137632 247.851713 1598.966709 -0.000000 0.334007 0.154241 -0.370720
7.725000 42.574766 160.727830 -0.000000 0.289321 0.445841 -0.137141 304.825991 1541.253574 -0.000000 0.324180 0.151526 -0.370852
7.730000 37.717736 176.905994 -0.000000 0.299305 0.448888 -0.137495 349.077008 1472.877121 -0.000000 0.314298 0.149497 -0.371031
7.735000 33.957932 192.865587 -0.000000 0.309619 0.451334 -0.137188 383.826358 1396.076022 -0.000000 0.304427 0.148113 -0.371243
7.740000 31.114246 207.572681 -0.000000 0.320158 0.452998 -0.136831 409.026908 1313.609717 -0.000000 0.294548 0.147444 -0.371444
7.745000 28.784697 220.134600 -0.000000 0.330795 0.454322 -0.136498 424.672622 1228.037188 -0.000000 0.284680 0.147315 -0.371585
7.750000 26.212403 229.999413 -0.000000 0.340987 0.454835 -0.136429 429.816263 1141.957990 -0.000000 0.274956 0.147917 -0.371795
7.755000 23.266685 236.893991 -0.000000 0.351032 0.454878 -0.136591 426.998816 1056.277635 -0.000000 0.265376 0.148966 -0.372119
7.760000 19.893376 240.847033 -0.000000 0.360963 0.454210 -0.136582 418.144204 971.476099 -0.000000 0.255971 0.150681 -0.372462
7.765000 15.976756 242.100983 -0.000000 0.370671 0.452915 -0.136649 404.164132 887.961515 -0.000000 0.246747 0.152977 -0.372853
7.770000 11.562516 241.022498 -0.000000 0.380161 0.450903 -0.136588 386.026967 805.823466 -0.000000 0.237756 0.155692 -0.373388
7.775000 6.751938 238.076369 -0.000000 0.389218 0.448198 -0.136458 364.357657 725.215156 -0.000000 0.229088 0.159158 -0.373897
7.780000 1.848220 233.793412 -0.000000 0.397952 0.444869 -0.136334 339.982372 646.293921 -0.000000 0.220714 0.163134 -0.374554
7.785000 -2.851512 228.745958 -0.000000 0.406273 0.440847 -0.135971 313.392985 569.608064 -0.000000 0.212830 0.167774 -0.375077
7.790000 -6.923629 223.511983 -0.000000 0.414275 0.436191 -0.135248 285.395459 495.798649 -0.000000 0.205338 0.172894 -0.375678
7.795000 -10.356105 218.643143 -0.000000 0.421535 0.430832 -0.134752 256.153057 426.098662 -0.000000 0.198500 0.178521 -0.376192
7.800000 -13.055091 214.670318 -0.000000 0.428155 0.425277 -0.134330 226.539667 361.468656 -0.000000 0.192210 0.184597 -0.376648
7.805000 -14.808031 212.124543 -0.000000 0.434182 0.419353 -0.133657 197.857002 302.553767 -0.000000 0.186559 0.191254 -0.377001
7.810000 -15.641126 211.508845 -0.000000 0.439590 0.412797 -0.133122 171.035700 250.015314 -0.000000 0.181351 0.198000 -0.377356
7.815000 -15.533950 213.312706 -0.000000 0.444568 0.405814 -0.132925 146.994069 204.158809 -0.000000 0.176661 0.205125 -0.377614
7.820000 -14.859120 218.008584 -0.000000 0.448669 0.398553 -0.132568 126.088460 165.186711 -0.000000 0.172504 0.212552 -0.377811
7.825000 -13.437033 226.151345 -0.000000 0.452047 0.390857 -0.132139 108.946819 132.531092 -0.000000 0.168570 0.220308 -0.377183
7.830000 -11.608226 238.298908 -0.000000 0.454805 0.382726 -0.131784 95.497501 105.610669 -0.000000 0.165364 0.228247 -0.377499
7.835000 -9.487539 255.007545 -0.000000 0.456804 0.374349 -0.131325 85.597276 83.509774 -0.000000 0.162621 0.236559 -0.377808
7.840000 -7.146061 276.704058 -0.000000 0.458286 0.365489 -0.130961 78.873225 65.260491 -0.000000 0.160379 0.245102 -0.378190
7.845000 -4.827494 303.565989 -0.000000 0.459136 0.356155 -0.130814 74.749114 49.975309 -0.000000 0.158586 0.253908 -0.378447
7.850000 -2.897892 335.474752 -0.000000 0.459319 0.346495 -0.130448 72.580909 36.855087 -0.000000 0.157280 0.263024 -0.378622
7.855000 -1.732396 372.015732 -0.000000 0.459055 0.336625 -0.130100 71.752017 25.217309 -0.000000 0.156523 0.272395 -0.378861
7.860000 -1.158792 412.514916 -0.000000 0.458056 0.326511 -0.130165 71.732509 14.444845 -0.000000 0.156280 0.282287 -0.378923
7.865000 -1.502848 456.111743 -0.000000 0.456693 0.315983 -0.129614 72.002350 4.218614 -0.000000 0.156627 0.292123 -0.378942
7.870000 -2.783753 501.841388 -0.000000 0.454859 0.305196 -0.129388 72.119915 -5.642824 -0.000000 0.157511 0.301868 -0.379012
7.875000 -3.983447 548.702435 -0.000000 0.453127 0.294245 -0.130068 71.692338 -15.271089 -0.000000 0.159026 0.311890 -0.378968
7.880000 -5.338783 595.725720 -0.000000 0.450742 0.283473 -0.130180 70.443691 -24.433557 -0.000000 0.161145 0.321943 -0.378863
7.885000 -5.669023 642.075698 -0.000000 0.447627 0.272793 -0.129521 68.195502 -32.964121 -0.000000 0.163853 0.332029 -0.378698
7.890000 -4.616276 687.075155 -0.000000 0.444137 0.262303 -0.130070 64.926902 -40.565568 -0.000000 0.167147 0.342017 -0.378447
7.895000 -0.774813 730.205996 -0.000000 0.440198 0.251862 -0.130223 60.683327 -47.063937 -0.000000 0.171079 0.351983 -0.378181
7.900000 6.054726 771.057108 -0.000000 0.435671 0.241479 -0.130472 55.681793 -52.209985 -0.000000 0.175580 0.361680 -0.377828
7.905000 15.144689 809.345766 -0.000000 0.430518 0.231661 -0.130726 50.263179 -55.805294 -0.000000 0.180681 0.371066 -0.377483
7.910000 28.477262 844.892594 -0.000000 0.424802 0.221838 -0.130876 44.587345 -57.952265 -0.000000 0.186379 0.380272 -0.377087
7.915000 44.007138 877.769895 -0.000000 0.418597 0.212611 -0.130909 39.062053 -58.617900 -0.000000 0.192558 0.389124 -0.376795
7.920000 62.477945 908.074791 -0.000000 0.412001 0.203682 -0.131132 33.833195 -58.047087 -0.000000 0.199251 0.397643 -0.376539
7.925000 83.408967 935.870606 -0.000000 0.405023 0.195155 -0.131418 29.022757 -56.505988 -0.000000 0.206382 0.405769 -0.376194
7.930000 107.520756 960.940094 -0.000000 0.397476 0.187117 -0.131562 24.565282 -54.317640 -0.000000 0.213966 0.413640 -0.375948
7.935000 132.775849 983.219189 -0.000000 0.389739 0.179685 -0.132083 20.453098 -51.663214 -0.000000 0.221947 0.420873 -0.375601
7.940000 160.868546 1002.174922 -0.000000 0.381617 0.172753 -0.132655 16.403468 -48.674130 -0.000000 0.230331 0.428023 -0.375332
7.945000 190.310198 1017.671118 -0.000000 0.373500 0.166001 -0.133275 12.297429 -45.223439 -0.000000 0.239159 0.434808 -0.375053
7.950000 220.708164 1029.434953 -0.000000 0.364747 0.159896 -0.133504 7.997945 -41.057485 -0.000000 0.248142 0.441147 -0.374438
7.955000 250.809241 1037.343955 -0.000000 0.355832 0.154281 -0.133798 3.479129 -35.854124 -0.000000 0.257474 0.446912 -0.374118
7.960000 280.701939 1040.955769 -0.000000 0.346648 0.149205 -0.134101 -1.259855 -29.351306 -0.000000 0.267229 0.452164 -0.373966
7.965000 308.498313 1040.317931 -0.000000 0.337265 0.144603 -0.134433 -6.119481 -21.418634 -0.000000 0.277078 0.456757 -0.373640
